<svg width="77" height="32" viewBox="0 0 77 32" fill="none" xmlns="http://www.w3.org/2000/svg">
<g clip-path="url(#clip0_416_1230)">
<path d="M24.4185 31.9809H20.6412L6.07409 13.634L6.02068 13.657V31.9427C5.8032 32.0076 0.2976 32.0229 0 31.9618V0.0382226L4.39914 0L18.3329 17.2384L18.394 17.2155V0.00764453H24.4185V31.9809Z" fill="#282828"/>
<path d="M76.3077 19.0807C76.3077 19.9942 76.2695 20.9078 76.1665 21.8136C76.0123 23.4105 75.5661 24.9653 74.8502 26.4004C73.7175 28.6208 71.7702 30.3154 69.4171 31.1285C68.3318 31.5144 67.2048 31.771 66.0596 31.893C64.9943 32.0113 63.9211 32.042 62.8508 31.9847C61.0908 31.933 59.3594 31.5247 57.7611 30.7845C55.5684 29.7332 53.8373 27.912 52.8965 25.6665C52.3171 24.3293 51.944 22.9116 51.79 21.462C51.6386 20.0793 51.6246 18.685 51.7481 17.2996C51.8875 15.3963 52.4064 13.5403 53.2742 11.8414C53.9578 10.4876 54.9353 9.30434 56.1349 8.37837C57.3345 7.45241 58.7258 6.80724 60.2068 6.49019C61.887 6.11239 63.6153 5.99635 65.3308 6.14619C66.6432 6.2289 67.937 6.49919 69.1729 6.94886C70.5673 7.45386 71.8336 8.26012 72.8821 9.31044C73.9305 10.3608 74.7353 11.6294 75.2394 13.0263C75.7369 14.3055 76.0504 15.6491 76.1703 17.0167C76.2352 17.6971 76.2619 18.3889 76.3077 19.0807ZM68.4709 18.8896C68.5199 17.703 68.4367 16.5146 68.2229 15.3464C68.0597 14.4115 67.7009 13.5218 67.1699 12.7358C66.6555 11.9823 65.8876 11.4396 65.0065 11.2069C64.505 11.1005 63.9894 11.0773 63.4804 11.1381C62.9492 11.155 62.4298 11.2988 61.9652 11.5574C61.5007 11.816 61.1045 12.182 60.8096 12.6249C60.6052 12.932 60.429 13.2569 60.2831 13.5958C59.9589 14.36 59.7407 15.165 59.6345 15.9885C59.4019 17.4966 59.329 19.0251 59.417 20.5485C59.46 21.4227 59.5878 22.2906 59.7985 23.14C59.9893 23.9781 60.3404 24.7712 60.8325 25.4754C61.3375 26.2019 62.0933 26.7152 62.9538 26.9164C63.581 27.0563 64.2298 27.068 64.8615 26.9508C65.5988 26.8296 66.2723 26.4585 66.7692 25.8996C67.1694 25.4507 67.4849 24.9327 67.7002 24.3707C68.1004 23.2785 68.3307 22.1312 68.3831 20.9689C68.4366 20.2045 68.448 19.44 68.4709 18.8896Z" fill="#282828"/>
<path d="M34.3995 20.8697C34.2965 22.0974 34.5244 23.3303 35.0596 24.4396C35.356 25.0424 35.7924 25.5652 36.3321 25.9642C36.8718 26.3633 37.4991 26.6269 38.1615 26.733C38.9186 26.8508 39.687 26.879 40.4507 26.8171C42.65 26.6903 44.8002 26.114 46.769 25.1238L47.0742 24.9862C47.4977 26.4769 47.8907 27.96 48.2951 29.4545C48.1311 29.5653 47.9861 29.6685 47.8335 29.7641C46.6249 30.4998 45.3112 31.0463 43.938 31.3847C42.383 31.7827 40.7851 31.9881 39.1802 31.9963C37.8572 32.0336 36.5342 31.9246 35.2351 31.6714C33.5634 31.3554 31.9926 30.6395 30.6566 29.5844C29.3504 28.5032 28.345 27.1023 27.7378 25.5175C27.2608 24.2998 26.9366 23.0274 26.7726 21.7297C26.6036 20.5772 26.5525 19.4105 26.6199 18.2476C26.6991 16.4035 27.086 14.5857 27.7646 12.8697C28.4954 10.9686 29.7611 9.32084 31.4082 8.12622C32.7296 7.20843 34.2347 6.59017 35.8188 6.31447C36.5525 6.16702 37.2987 6.09149 38.047 6.08895C40.4131 6.0802 42.7333 6.7428 44.7392 8.00009C46.3796 9.05945 47.6577 10.5958 48.402 12.4033C48.9368 13.6744 49.2937 15.0134 49.4626 16.3823C49.6317 17.777 49.6853 19.1833 49.6229 20.5868C49.6229 20.648 49.6229 20.862 49.6229 20.862C49.0124 20.862 48.3485 20.862 47.7152 20.862H34.3995V20.8697ZM38.9169 16.7645C39.1726 16.7378 39.4969 16.711 39.8174 16.6652C40.5441 16.5789 41.2345 16.2991 41.8166 15.8548C42.2933 15.4931 42.6465 14.9924 42.8277 14.4215C42.9867 13.8302 42.972 13.2054 42.7852 12.6223C42.5984 12.0392 42.2475 11.5225 41.7746 11.1343C41.5006 10.9107 41.1838 10.7455 40.8437 10.6489C40.2584 10.492 39.6407 10.5039 39.0619 10.6833C37.5491 11.1278 36.2667 12.1414 35.4831 13.5118C35.3671 13.7153 35.2797 13.934 35.2236 14.1616C35.1312 14.4569 35.1279 14.7729 35.2141 15.0701C35.3003 15.3672 35.4722 15.6323 35.7082 15.8319C35.9063 16.0043 36.1255 16.1508 36.3606 16.2676C37.16 16.6381 38.0372 16.8086 38.9169 16.7645V16.7645Z" fill="#282828"/>
</g>
<defs>
<clipPath id="clip0_416_1230">
<rect width="76.3077" height="32" fill="white"/>
</clipPath>
</defs>
</svg>
