<svg width="32" height="32" viewBox="0 0 32 32" fill="none" xmlns="http://www.w3.org/2000/svg">
<path d="M32 0H0V32H32V0Z" fill="#282828"/>
<path d="M14.9217 18.0932L9.42908 7.80396H11.9393L15.1702 14.3155C15.2199 14.4315 15.2779 14.5516 15.3442 14.6759C15.4105 14.8002 15.4684 14.9286 15.5181 15.0611C15.5513 15.1108 15.5761 15.1564 15.5927 15.1978C15.6093 15.2392 15.6258 15.2765 15.6424 15.3097C15.7253 15.4753 15.7998 15.6369 15.8661 15.7943C15.9324 15.9517 15.9904 16.0967 16.0401 16.2292C16.1726 15.9476 16.3176 15.6452 16.475 15.3221C16.6324 14.999 16.794 14.6635 16.9596 14.3155L20.2403 7.80396H22.5765L17.0342 18.2175V24.8533H14.9217V18.0932Z" fill="white"/>
</svg>
